<?xml version="1.0" encoding="UTF-8"?>
<svg version="1.1" viewBox="0 0 1464 836" width="366" height="209" xmlns="http://www.w3.org/2000/svg">
<path transform="translate(0)" d="m0 0h1464v836h-1464z" fill="#47596F"/>
<path transform="translate(474,14)" d="m0 0h9l14 2 12 5 8 6 3 3v2h2l9 13 9 16 9 13 12 14 11 10 25 16 12 6 15 5 19 5 23 1 8 2 17 2 12 5 10 8 8 10 5 8 5 14 1 5v9l-4 14-8 18-12 25-6 23-3 20v31l2 19 4 18 5 15 12 25 6 14 4 17-1 10-6 15-9 15-9 9-8 5-17 4-21 1-4 1-24 2-19 5-15 6-16 8-10 6-11 9-10 10-13 18-12 20-15 16-16 8-15 2h-10l-13-4-14-8-9-9-13-19-11-16-11-12-11-10-12-9-17-10-21-8-15-3-15-1-2-1-28-2-16-4-11-6-8-7-9-14-5-12-2-13v-8l3-12 10-23 9-20 5-15 4-18 1-9v-29l-2-21-4-18-8-21-13-28-4-13-1-18 4-13 6-11 9-11 9-8 9-4 18-3 10-1 24-1 20-5 16-6 20-11 14-11 10-9 9-8 11-14 13-22 7-11 9-9 6-4 11-4z" fill="#47596F"/>
<path transform="translate(474,14)" d="m0 0h9l14 2 12 5 8 6 3 3v2h2l9 13 9 16 9 13 12 14 11 10 25 16 12 6 15 5 19 5 23 1 8 2 17 2 12 5 10 8 8 10 5 8 5 14 1 5v9l-4 14-8 18-12 25-6 23-3 20v31l2 19 4 18 5 15 12 25 6 14 4 17-1 10-6 15-9 15-9 9-8 5-17 4-21 1-4 1-24 2-19 5-15 6-16 8-10 6-11 9-10 10-13 18-12 20-15 16-16 8-15 2h-10l-13-4-14-8-9-9-13-19-11-16-11-12-11-10-12-9-17-10-21-8-15-3-15-1-2-1-28-2-16-4-11-6-8-7-9-14-5-12-2-13v-8l3-12 10-23 9-20 5-15 4-18 1-9v-29l-2-21-4-18-8-21-13-28-4-13-1-18 4-13 6-11 9-11 9-8 9-4 18-3 10-1 24-1 20-5 16-6 20-11 14-11 10-9 9-8 11-14 13-22 7-11 9-9 6-4 11-4zm1 28-10 3-8 8-7 12-2 7 1 11 4 3 18-1 4 12v11l-2 7-21 2-21 4-21 8-16 7-16 10-16 13-10 9-9 11-11 13-7 9-6 4-1 12-5 12-7 18-6 22-2 13v52l2 15 6 21 7 18 4 10v6l-6 3-5 5-6 4-8 1-8-14-5-7-5 5-7 8-6 10-3 6-1 5v7l4 13 4 6 6 4 5 2 9 1 16-3 10-1 2-4-12-18v-6l9-11 5-4 2-3 5 2 11 13 7 9 9 10 16 15h2v2l13 10 15 9 16 8 33 10 14 3 14 2 3 2v17l-1 7-4 2-21 1-1 1v9l4 11 6 9 7 6 11 3h7l10-3 5-4 7-11 4-10 1-4v-7l-16-1-8-2-4-4-1-4-1-10 4-6 6-3 15-3 25-6 21-7 23-12 11-8 9-7 10-9 8-8 9-11 8-10 5-5h10l5 5 6 5 2 4-2 10-6 10-1 4 2 2 22 3h10l8-4 6-7 7-14-1-9-7-12-10-15-3-4-4 1-9 15-5 8h-5l-11-7-9-6 3-10 6-16 7-19 4-15 4-22 1-9v-12l-1-15-4-24-8-26-8-20-2-9v-3l-6-3-1-2h-2l-2-4-10-14-11-13-16-16-18-13-15-9-21-9-22-6-16-3-15-2-2-4v-9l1-11 1-5h24l-1-8-3-17-4-8-5-4-10-4-8-2z" fill="#07F5AE"/>
<path transform="translate(388,216)" d="m0 0h92l87 1 18 2 5 4 2 7v27l-3 22-4 6-17 3-19-1-17-2-5-3-8-9-2-4-5-3h-7l-7-2-8 1h-13l-3-1h-11l-4 1-14 1-7 6-6 8-8 7-3 1h-22l-10-2h-9l-9-1-2-3-1-39-1-7v-8l3-6 2-2z" fill="#07F5AE"/>
<path transform="translate(629,659)" d="m0 0h23l3 2 1 96v58l-4 2h-29l-1-1-1-53-1-7-4-1-60-1v62l-6 1h-27l-1-1v-152l2-2h23l8 1 1 6v55h64l4-13-1-7-1-5v-34l4-5z" fill="#FEFEFE"/>
<path transform="translate(463,288)" d="m0 0h39l6 3 3 5v160l-2 8-2 4-7 4h-38l-8-3-3-3-1-15v-140l1-17 8-5z" fill="#07F5AE"/>
<path transform="translate(886,696)" d="m0 0 12 2 12 5 11 7 10 10 8 16 3 10 1 7v13l-3 5-6 2-11 1-2 1h-10l-2-1h-49l2 7 9 10 5 2 16 1 12-2 12-7 3-3 5 2 10 14-1 5-7 8-11 6-10 3-7 1h-21l-11-2-14-7-10-9-9-13-4-10-3-12v-10l4-21 6-12 11-12 10-7 13-6z" fill="#FEFEFE"/>
<path transform="translate(183,697)" d="m0 0h11l14 4 11 6 11 9 7 10 4 10 3 16v18l-3 2-16 1-61 1 2 8 7 8 2 2 6 1h22l9-4 7-5 6 1 6 7 5 8-3 5-8 7-11 5-8 3h-32l-13-5-9-6-10-9-7-10-5-14-2-14 1-16 6-16 6-10 12-12 10-5z" fill="#FEFEFE"/>
<path transform="translate(386,653)" d="m0 0h26l2 1 1 57 5-2 11-8 11-4h14l12 4 11 8 8 10 4 9 1 5 1 42v44l-2 1-24 1-6-3-1-1v-7l1-3v-59l-4-11-6-8-7-3h-14l-8 3-6 9-1 7v69l-3 3-4 2-6-1-1-1-7 1-4 2-7-1-1-3v-121l2-4v-6l-2-4v-24z" fill="#FEFEFE"/>
<path transform="translate(20,659)" d="m0 0h109l13 2 2 1-1 28-4 2h-40l-1 9v10l1 5-3 11v92l-1 1-10 1-5-3-4 1-1 1h-8l-5-5-1-124-10-1h-25l-3 2-5-1-3-7v-18l3-6z" fill="#FEFEFE"/>
<path transform="translate(314,697)" d="m0 0h12l16 4 12 6 10 9 1 5-14 14-3 4-4-1-5-8-10-3-14-1-10 3-8 7-4 8-3 13v10l4 10 9 10 12 6h11l12-5 9-7 5 1 10 10v2h2l2 3-1 4-5 5-8 6-16 8-8 1h-13l-14-3-13-5-11-8-6-7-7-10-4-16v-30l4-10 9-13 7-7 13-8 13-5z" fill="#FEFEFE"/>
<path transform="translate(811,696)" d="m0 0 5 1 3 9v15l-2 5-3 3-12 2-9 5-5 5-5 7-3 10v56l-5 5-7 2h-13l-5-2-3-3v-109l4-6 2-1h25l4 10 3 1 11-8 4-3 10-3z" fill="#FEFEFE"/>
<path transform="translate(695,699)" d="m0 0h13l9 2 3 5v57l-1 15-1 5v36l-1 1h-11l-2-2-5 1-1 1h-9l-2-4 1-111 3-5z" fill="#FEFEFE"/>
<path transform="translate(662,163)" d="m0 0h18l11 4 6 5 6 11v10l-5 11-6 9-9 8-5 1-5-8-3-6-4-4h-8l-5 1-4 5-3 1-4-3 2-5 5-3 5-5 3-4v-8l-6-12 1-5z" fill="#47596F"/>
<path transform="translate(274,163)" d="m0 0h23l10 3v7l-6 11v5l4 2 1 3h2l4 7 4 2-1 4-4 1-1-3h-2v-2l-4-1-3-3-5 2-5 4-9 18-4 1-8-7-9-13-3-8-1-11 3-9 9-11z" fill="#47596F"/>
<path transform="translate(884,722)" d="m0 0h8l7 3 6 7 5 10 1 7-3 1h-39l-8-1-1-6 3-9 5-6 10-5z" fill="#47596F"/>
<path transform="translate(702,649)" d="m0 0 11 2 8 7 3 5v7l-4 9-6 5-2 1h-13l-9-4-5-6-1-9 5-10 6-5z" fill="#FEFEFE"/>
<path transform="translate(180,723)" d="m0 0h15l8 4 7 8 2 4v7l-5 4h-40l-3-3v-10l3-6 7-6z" fill="#47596F"/>
</svg>
